<?xml version="1.0" encoding="iso-8859-1"?>
<!-- Generator: Adobe Illustrator 18.1.1, SVG Export Plug-In . SVG Version: 6.00 Build 0)  -->
<svg version="1.1" id="_2" xmlns="http://www.w3.org/2000/svg" xmlns:xlink="http://www.w3.org/1999/xlink" x="0px" y="0px"
	 viewBox="0 0 26 26" style="enable-background:new 0 0 26 26;" xml:space="preserve">
<title>BART-icons-msp-05-nick</title>
<path d="M13,1.12c6.561,0,11.88,5.319,11.88,11.88S19.561,24.88,13,24.88S1.12,19.561,1.12,13C1.131,6.443,6.443,1.131,13,1.12
	 M13,0.12C5.887,0.12,0.12,5.887,0.12,13S5.887,25.88,13,25.88S25.88,20.113,25.88,13c0,0,0,0,0,0c0-7.108-5.762-12.87-12.87-12.87
	c-0.003,0-0.007,0-0.01,0l0,0V0.12z"/>
<path d="M16.13,18H10v-0.79l1-1c0.949-0.904,1.841-1.866,2.67-2.88c0.525-0.633,0.834-1.418,0.88-2.24
	c0.13-0.919-0.509-1.769-1.428-1.899C12.969,9.17,12.813,9.169,12.66,9.19c-0.74,0.032-1.446,0.318-2,0.81l-0.42-0.92
	c0.748-0.652,1.708-1.008,2.7-1C13.793,8.035,14.621,8.372,15.2,9c0.465,0.534,0.711,1.223,0.69,1.93
	c-0.029,0.929-0.343,1.826-0.9,2.57c-0.711,0.963-1.511,1.857-2.39,2.67l-0.76,0.73l0,0h4.29V18z"/>
</svg>
