<?xml version="1.0" encoding="iso-8859-1"?>
<!-- Generator: Adobe Illustrator 18.1.1, SVG Export Plug-In . SVG Version: 6.00 Build 0)  -->
<svg version="1.1" id="_4" xmlns="http://www.w3.org/2000/svg" xmlns:xlink="http://www.w3.org/1999/xlink" x="0px" y="0px"
	 viewBox="0 0 26 26" style="enable-background:new 0 0 26 26;" xml:space="preserve">
<title>BART-icons-msp-05-nick</title>
<path d="M13,1.12c6.561,0,11.88,5.319,11.88,11.88S19.561,24.88,13,24.88S1.12,19.561,1.12,13C1.131,6.443,6.443,1.131,13,1.12
	 M13,0.12C5.887,0.12,0.12,5.887,0.12,13S5.887,25.88,13,25.88S25.88,20.113,25.88,13c0,0,0,0,0,0c0-7.108-5.762-12.87-12.87-12.87
	c-0.003,0-0.007,0-0.01,0l0,0V0.12z"/>
<path d="M16,15.35h-1.35V18h-1.24v-2.65H9v-0.86l4.27-6.23h1.41v6.08H16v1V15.35z M13.47,9.56h-0.06
	c-0.16,0.353-0.43,0.847-0.81,1.48l-2.31,3.32h3.12V11.1C13.41,10.6,13.43,10.087,13.47,9.56z"/>
</svg>
