<?xml version="1.0" encoding="iso-8859-1"?>
<!-- Generator: Adobe Illustrator 18.1.1, SVG Export Plug-In . SVG Version: 6.00 Build 0)  -->
<svg version="1.1" id="_3" xmlns="http://www.w3.org/2000/svg" xmlns:xlink="http://www.w3.org/1999/xlink" x="0px" y="0px"
	 viewBox="0 0 26 26" style="enable-background:new 0 0 26 26;" xml:space="preserve">
<title>BART-icons-msp-05-nick</title>
<path d="M13,1.12c6.561,0,11.88,5.319,11.88,11.88S19.561,24.88,13,24.88S1.12,19.561,1.12,13C1.131,6.443,6.443,1.131,13,1.12
	 M13,0.12C5.892,0.126,0.134,5.892,0.14,13c0.006,7.108,5.772,12.866,12.88,12.86c7.1-0.006,12.854-5.76,12.86-12.86
	c0.006-7.108-5.752-12.874-12.86-12.88C13.013,0.12,13.007,0.12,13,0.12C13,0.12,13,0.12,13,0.12z"/>
<path d="M15.55,15.27c0.005,0.764-0.319,1.493-0.89,2c-0.733,0.608-1.668,0.919-2.62,0.87c-0.87,0.035-1.73-0.191-2.47-0.65l0.36-1
	c0.631,0.388,1.359,0.59,2.1,0.58c0.634,0.044,1.256-0.185,1.71-0.63c0.318-0.34,0.484-0.795,0.46-1.26
	c0.022-0.592-0.266-1.153-0.76-1.48c-0.51-0.325-1.106-0.489-1.71-0.47H11v-1h0.7c0.505,0.014,1.002-0.122,1.43-0.39
	c0.451-0.258,0.727-0.74,0.72-1.26c0.008-0.372-0.132-0.732-0.39-1c-0.355-0.312-0.819-0.47-1.29-0.44
	c-0.681,0.001-1.344,0.222-1.89,0.63l-0.36-0.9c0.728-0.518,1.607-0.781,2.5-0.75c0.761-0.044,1.509,0.215,2.08,0.72
	c0.443,0.412,0.688,0.995,0.67,1.6c0.006,1.079-0.724,2.024-1.77,2.29l0,0c0.578,0.104,1.105,0.395,1.5,0.83
	C15.334,14.022,15.568,14.637,15.55,15.27z"/>
</svg>
