<svg xmlns="http://www.w3.org/2000/svg" width="36" height="48" viewBox="0 0 36 48"><path fill="#fff" d="M14.161 30.93h.937l-.897-13.48h-1.138l-2.912 7.74c-.346.907-.636 1.7-.868 2.38-.232.68-.435 1.34-.607 1.981h-.061c-.187-.681-.398-1.36-.639-2.041-.238-.68-.512-1.459-.817-2.34l-2.832-7.72h-1.077l-.958 13.48h.918l.419-6.199c.08-1.12.143-2.227.189-3.32.046-1.093.076-2.04.09-2.84h.06c.2.76.438 1.557.718 2.39.279.834.605 1.777.977 2.83l2.594 7.14h.657l2.773-7.319c.372-1 .701-1.9.987-2.7.286-.8.541-1.58.768-2.34h.061c0 .373.01.797.029 1.27l.069 1.5.08 1.61.08 1.58.4 6.398zm9.694-6.06c0-.44-.045-.883-.13-1.33-.087-.446-.249-.85-.489-1.21-.239-.359-.568-.653-.987-.88-.419-.227-.961-.34-1.626-.34-.492 0-.964.063-1.416.191-.452.126-.891.336-1.316.629l.299.7c.333-.227.702-.403 1.107-.529.406-.127.814-.19 1.226-.19.545 0 .978.1 1.297.298.319.199.559.444.719.735.158.292.262.6.309.924.046.325.07.613.07.865v.258c-1.915-.026-3.349.268-4.299.883-.951.615-1.427 1.492-1.427 2.629 0 .32.057.642.17.963.112.321.282.605.509.853.226.247.515.448.867.602.352.153.761.231 1.227.231.373 0 .715-.047 1.027-.141.312-.093.592-.216.838-.369s.462-.323.648-.511c.186-.187.34-.373.459-.56h.04l.14 1.359h.877c-.066-.359-.105-.732-.119-1.119-.014-.387-.02-.773-.02-1.16v-3.781zm-.938 3c0 .12-.033.313-.1.58-.08.24-.197.474-.35.7-.153.226-.343.43-.568.609-.227.181-.492.324-.799.431-.306.107-.65.16-1.037.16-.479 0-.91-.16-1.297-.48-.385-.319-.578-.819-.578-1.5 0-.573.153-1.033.459-1.38.307-.347.691-.61 1.157-.79.466-.18.974-.297 1.525-.35.552-.054 1.081-.073 1.587-.061v2.081zm10.366 1.941c-.266.107-.578.22-.937.34-.359.12-.818.18-1.376.18-.546 0-1.045-.097-1.497-.291-.452-.194-.845-.473-1.177-.834-.332-.361-.588-.801-.768-1.316-.18-.516-.269-1.088-.269-1.718 0-.562.08-1.103.239-1.618.159-.516.399-.968.718-1.356.32-.388.715-.7 1.188-.935.472-.234 1.021-.351 1.646-.351.519 0 .958.06 1.316.18.359.12.651.247.878.381l.339-.795c-.187-.13-.495-.256-.928-.381-.432-.123-.935-.185-1.506-.185-.705 0-1.353.127-1.944.38-.592.254-1.101.604-1.526 1.05-.426.447-.758.983-.997 1.61-.239.627-.359 1.32-.359 2.08 0 .733.106 1.399.319 2 .213.6.515 1.117.907 1.55.393.434.864.767 1.416 1 .552.233 1.167.35 1.846.35.678 0 1.25-.068 1.715-.204.466-.137.799-.257.998-.361l-.241-.756z"/></svg>