<?xml version="1.0" encoding="utf-8"?>
<!-- Generator: Adobe Illustrator 16.0.0, SVG Export Plug-In . SVG Version: 6.00 Build 0)  -->
<!DOCTYPE svg PUBLIC "-//W3C//DTD SVG 1.1//EN" "http://www.w3.org/Graphics/SVG/1.1/DTD/svg11.dtd">
<svg version="1.1" xmlns="http://www.w3.org/2000/svg" xmlns:xlink="http://www.w3.org/1999/xlink" x="0px" y="0px" width="28px"
	 height="28px" viewBox="0 0 28 28" enable-background="new 0 0 28 28" xml:space="preserve">
<g id="Layer_1">
	<g id="Layer_1_1_">
		<circle fill="#0088CC" cx="14" cy="14" r="14"/>
		<g>
			<path fill="#FFFFFF" d="M8.013,10.729c0-0.934,0.143-1.783,0.429-2.547C8.728,7.418,9.145,6.764,9.691,6.22
				c0.546-0.543,1.206-0.963,1.978-1.261c0.771-0.297,1.634-0.446,2.588-0.446c0.798,0,1.539,0.115,2.226,0.344
				c0.686,0.229,1.283,0.56,1.795,0.993c0.513,0.433,0.914,0.972,1.209,1.617c0.297,0.646,0.443,1.375,0.443,2.191
				c0,0.594-0.066,1.108-0.195,1.541c-0.131,0.433-0.305,0.807-0.521,1.121s-0.464,0.595-0.739,0.84
				c-0.277,0.247-0.558,0.488-0.832,0.726c-0.33,0.271-0.636,0.535-0.912,0.789c-0.276,0.257-0.521,0.54-0.729,0.854
				c-0.208,0.312-0.368,0.685-0.479,1.106c-0.112,0.427-0.17,0.942-0.17,1.556h-2.811c0-0.748,0.039-1.381,0.117-1.897
				c0.078-0.519,0.204-0.972,0.377-1.362c0.173-0.39,0.386-0.732,0.638-1.032c0.251-0.297,0.552-0.59,0.896-0.879
				c0.277-0.237,0.543-0.458,0.793-0.662c0.252-0.204,0.479-0.429,0.679-0.675c0.198-0.246,0.354-0.522,0.469-0.828
				c0.112-0.306,0.169-0.67,0.169-1.095c0-0.509-0.091-0.946-0.271-1.312C16.223,8.083,16,7.791,15.74,7.57
				c-0.262-0.22-0.538-0.382-0.833-0.484c-0.296-0.102-0.556-0.153-0.78-0.153c-1.076,0-1.869,0.344-2.38,1.032
				c-0.512,0.688-0.768,1.609-0.768,2.764H8.013z M12.15,19.949h3.487v3.184H12.15V19.949z"/>
		</g>
	</g>
	<g id="Layer_2_1_">
	</g>
</g>
<g id="Layer_2">
</g>
</svg>
