<?xml version="1.0" encoding="utf-8"?>
<!-- Generator: Adobe Illustrator 18.0.0, SVG Export Plug-In . SVG Version: 6.00 Build 0)  -->
<!DOCTYPE svg PUBLIC "-//W3C//DTD SVG 1.1//EN" "http://www.w3.org/Graphics/SVG/1.1/DTD/svg11.dtd">
<svg version="1.1" xmlns="http://www.w3.org/2000/svg" xmlns:xlink="http://www.w3.org/1999/xlink" x="0px" y="0px" width="39px"
	 height="45px" viewBox="0 0 39 45" enable-background="new 0 0 39 45" xml:space="preserve">
<g id="Tool_Kit_Financing__x5B__Dark__x5D_">
</g>
<g id="Tool_Kit_Financing__x5B__Light__x5D_">
	<path id="Pick-up_Today_2_" fill="#888888" d="M24.61,21.33c0.33,0.32,0.69,0.57,1.1,0.74c-0.09,0.27-0.18,0.52-0.28,0.76
		c-0.24,0.57-0.52,1.1-0.86,1.58c-0.45,0.66-0.81,1.11-1.1,1.36c-0.44,0.42-0.91,0.63-1.41,0.64c-0.36,0-0.8-0.1-1.31-0.32
		c-0.51-0.22-0.98-0.33-1.4-0.33c-0.45,0-0.93,0.11-1.45,0.33c-0.51,0.21-0.93,0.32-1.25,0.34c-0.49,0.02-0.97-0.2-1.45-0.66
		c-0.31-0.27-0.69-0.74-1.15-1.42c-0.49-0.71-0.9-1.54-1.22-2.49c-0.34-1.02-0.51-2.01-0.51-2.96c0-1.1,0.23-2.04,0.69-2.83
		c0.36-0.64,0.84-1.14,1.45-1.51c0.6-0.36,1.26-0.55,1.96-0.57c0.38,0,0.89,0.12,1.51,0.36c0.63,0.24,1.03,0.36,1.2,0.36
		c0.13,0,0.57-0.14,1.34-0.43c0.71-0.26,1.31-0.37,1.81-0.33c1.34,0.11,2.35,0.66,3.01,1.63c-1.19,0.75-1.79,1.79-1.78,3.13
		C23.51,19.77,23.88,20.64,24.61,21.33z M21.43,12.63c0.57-0.71,0.87-1.48,0.87-2.3c0-0.11,0-0.22-0.02-0.33
		c-0.41,0.02-0.84,0.15-1.29,0.38c-0.46,0.23-0.83,0.52-1.13,0.87c-0.59,0.69-0.89,1.43-0.89,2.22c0,0.11,0.01,0.21,0.02,0.31
		C19.92,13.87,20.73,13.48,21.43,12.63z M37,7v25c0,2.67-2.33,5-5,5h-8l-4.5,5L15,37H7c-2.67,0-5-2.33-5-5V7c0-2.67,2.33-5,5-5h25
		C34.67,2,37,4.33,37,7z M36,7c0-2.08-1.92-4-4-4H7C4.92,3,3,4.92,3,7v25c0,2.08,1.92,4,4,4h8.5l4,4.5l4-4.5H32c2.08,0,4-1.92,4-4V7
		z"/>
</g>
</svg>
