<?xml version="1.0" encoding="utf-8"?>
<!-- Generator: Adobe Illustrator 18.0.0, SVG Export Plug-In . SVG Version: 6.00 Build 0)  -->
<!DOCTYPE svg PUBLIC "-//W3C//DTD SVG 1.1//EN" "http://www.w3.org/Graphics/SVG/1.1/DTD/svg11.dtd">
<svg version="1.1" xmlns="http://www.w3.org/2000/svg" xmlns:xlink="http://www.w3.org/1999/xlink" x="0px" y="0px" width="57px"
	 height="45px" viewBox="0 0 57 45" enable-background="new 0 0 57 45" xml:space="preserve">
<g id="Tool_Kit_Financing__x5B__Dark__x5D_">
</g>
<g id="Tool_Kit_Financing__x5B__Light__x5D_">
	<path id="Chat_2_" fill="#888888" d="M55.06,41.41c-3.66-2.77-4.75-4.45-5.3-5.75c2.95-2.26,4.57-5.2,4.57-8.34
		c0-5.85-5.75-10.74-13.34-11.84C40.71,8.02,32.29,2,21.95,2C11.44,2,2.89,8.22,2.89,15.87c0,3.3,1.6,6.47,4.53,8.97
		c-0.49,1.33-1.31,3.03-5.48,6.2L1,31.76l1.12,0.37c0.13,0.04,1.58,0.51,3.69,0.51c2.59,0,6.16-0.71,9.49-3.77
		c2,0.54,4.08,0.82,6.27,0.86c1.54,5.5,8.23,9.66,16.22,9.66c1.33,0,3.19-0.14,3.88-0.19c3.38,3.14,7.05,3.81,9.56,3.81
		c2.15,0,3.61-0.48,3.67-0.5L56,42.13L55.06,41.41z M15.02,27.76l-0.41,0.37c-3.14,2.9-6.52,3.5-8.81,3.5
		c-1.13,0-2.06-0.15-2.66-0.27c3.78-2.97,4.67-4.74,5.2-6.18l0.24-0.65l-0.53-0.45c-2.7-2.31-4.18-5.22-4.18-8.21
		C3.89,8.77,11.99,3,21.95,3c9.61,0,17.65,5.54,18.03,12.37c-0.71-0.06-1.43-0.07-2.16-0.07c-9.14,0-16.58,5.4-16.58,12.04
		c0,0.47,0.06,0.92,0.13,1.38c-2.06-0.05-3.96-0.31-5.81-0.81L15.02,27.76z M51.22,42c-2.32,0-5.74-0.61-8.88-3.54l-0.32-0.3
		l-0.44,0.04c-0.55,0.04-2.44,0.19-3.8,0.19c-7.4,0-13.81-3.75-15.25-8.93c0,0-0.28-1.1-0.29-2.12
		c-0.06-6.09,6.99-10.93,15.58-11.04c1.43-0.02,3.04,0.17,3.04,0.17c7.23,1.04,12.48,5.6,12.48,10.85c0,2.8-1.48,5.48-4.18,7.54
		l-0.62,0.47l0.3,0.71c0.55,1.31,1.59,3.01,5,5.69C53.25,41.86,52.34,42,51.22,42z"/>
</g>
</svg>
