<?xml version="1.0" encoding="utf-8"?>
<!-- Generator: Adobe Illustrator 16.0.4, SVG Export Plug-In . SVG Version: 6.00 Build 0)  -->
<!DOCTYPE svg PUBLIC "-//W3C//DTD SVG 1.1//EN" "http://www.w3.org/Graphics/SVG/1.1/DTD/svg11.dtd">
<svg version="1.1" id="Layer_1" xmlns="http://www.w3.org/2000/svg" xmlns:xlink="http://www.w3.org/1999/xlink" x="0px" y="0px"
	 width="48px" height="48px" viewBox="0 0 48 48" enable-background="new 0 0 48 48" xml:space="preserve">
<path fill="#999999" d="M46.533,40.221c-2.979-2.231-3.867-3.58-4.316-4.632c2.404-1.817,3.725-4.187,3.725-6.71
	c0-4.712-4.682-8.648-10.865-9.528C34.842,13.341,27.982,8.5,19.566,8.5c-8.562,0-15.527,5.008-15.527,11.164
	c0,2.653,1.307,5.205,3.689,7.219c-0.403,1.072-1.064,2.441-4.462,4.99L2.5,32.447l0.909,0.301C3.516,32.783,4.7,33.16,6.417,33.16
	c2.108,0,5.02-0.568,7.727-3.033c1.629,0.436,3.325,0.661,5.107,0.689c1.25,4.43,6.698,7.772,13.208,7.772
	c1.086,0,2.594-0.11,3.156-0.155c2.75,2.527,5.744,3.064,7.789,3.064c1.75,0,2.936-0.386,2.986-0.402l0.906-0.301L46.533,40.221z
	 M14.142,29.089l-0.274-0.077l-0.207,0.196c-3.404,3.237-7.2,3.106-8.957,2.815c3.122-2.5,3.649-3.941,4.042-5.018l0.166-0.449
	l-0.281-0.226c-2.317-1.854-3.594-4.223-3.594-6.668c0-5.604,6.517-10.164,14.527-10.164c7.77,0,14.116,4.291,14.491,9.738
	c-0.525-0.044-1.057-0.074-1.598-0.074c-7.432,0-13.479,4.358-13.479,9.715c0,0.315,0.025,0.627,0.066,0.937
	C17.375,29.771,15.727,29.535,14.142,29.089z M43.404,40.498c-1.904,0-4.709-0.511-7.264-2.941L35.977,37.4l-0.225,0.021
	c-0.02,0.002-2.006,0.17-3.293,0.17c-6.883,0-12.48-3.907-12.48-8.711c0-4.805,5.599-8.715,12.48-8.715s12.48,3.91,12.48,8.715
	c0,2.3-1.287,4.476-3.621,6.127l-0.314,0.222l0.135,0.36c0.426,1.134,1.125,2.521,3.945,4.775
	C44.641,40.438,44.064,40.498,43.404,40.498z"/>
</svg>
