<?xml version="1.0" encoding="utf-8"?>
<!-- Generator: Adobe Illustrator 16.0.4, SVG Export Plug-In . SVG Version: 6.00 Build 0)  -->
<!DOCTYPE svg PUBLIC "-//W3C//DTD SVG 1.1//EN" "http://www.w3.org/Graphics/SVG/1.1/DTD/svg11.dtd">
<svg version="1.1" id="Layer_1" xmlns="http://www.w3.org/2000/svg" xmlns:xlink="http://www.w3.org/1999/xlink" x="0px" y="0px"
	 width="48px" height="48px" viewBox="0 0 48 48" enable-background="new 0 0 48 48" xml:space="preserve">
<g>
	<path fill="#999999" d="M31.475,12.5c-0.261-4.454-3.955-8-8.475-8c-4.518,0-8.214,3.546-8.475,8H6.5v30.998H7h32.5V13v-0.5H31.475
		z M23,5.5c3.967,0,7.216,3.098,7.475,7h-14.95C15.785,8.598,19.033,5.5,23,5.5z M38.5,42.5h-31v-29h31V42.5z"/>
	<path fill="#999999" d="M16.932,30.012c0.137,0.43,0.303,0.84,0.494,1.238c0.191,0.398,0.398,0.766,0.625,1.098
		c0.246,0.355,0.469,0.652,0.672,0.892c0.199,0.241,0.391,0.434,0.574,0.577c0.18,0.142,0.355,0.242,0.523,0.302
		c0.166,0.059,0.338,0.086,0.516,0.086c0.127,0,0.289-0.027,0.484-0.086c0.197-0.06,0.41-0.125,0.641-0.199
		c0.232-0.073,0.463-0.146,0.693-0.207c0.232-0.062,0.445-0.094,0.643-0.094c0.186,0,0.387,0.026,0.604,0.086
		c0.218,0.06,0.437,0.125,0.654,0.198c0.223,0.074,0.437,0.142,0.644,0.199c0.204,0.06,0.383,0.086,0.528,0.086
		c0.228,0,0.445-0.051,0.656-0.151s0.416-0.242,0.611-0.418c0.119-0.109,0.268-0.272,0.451-0.496c0.18-0.22,0.367-0.478,0.559-0.772
		c0.191-0.293,0.377-0.617,0.553-0.966c0.178-0.348,0.324-0.711,0.443-1.082c-0.619-0.276-1.104-0.68-1.453-1.219
		c-0.348-0.531-0.521-1.125-0.521-1.772c0-0.609,0.127-1.146,0.382-1.605c0.256-0.461,0.659-0.859,1.211-1.195
		c-0.306-0.441-0.707-0.797-1.203-1.066s-1.062-0.406-1.701-0.406c-0.196,0-0.438,0.035-0.729,0.109
		c-0.289,0.074-0.568,0.152-0.838,0.238c-0.271,0.082-0.508,0.16-0.708,0.234c-0.203,0.074-0.312,0.109-0.332,0.109
		c-0.051,0-0.178-0.035-0.383-0.102c-0.207-0.07-0.438-0.145-0.693-0.223c-0.255-0.078-0.51-0.152-0.76-0.219
		c-0.25-0.07-0.449-0.105-0.596-0.105c-0.521,0-1.002,0.109-1.445,0.324c-0.441,0.215-0.83,0.52-1.162,0.914
		c-0.336,0.395-0.598,0.859-0.781,1.395c-0.188,0.535-0.281,1.121-0.281,1.759c0,0.405,0.037,0.819,0.109,1.254
		C16.688,29.156,16.793,29.586,16.932,30.012z"/>
	<path fill="#999999" d="M22.691,22.902c0.344,0,0.682-0.086,1.012-0.266c0.328-0.176,0.623-0.41,0.883-0.707
		c0.262-0.293,0.469-0.629,0.627-1c0.156-0.375,0.236-0.754,0.236-1.137c0-0.047,0-0.098,0-0.148c0-0.047-0.006-0.098-0.016-0.145
		c-0.394,0.02-0.771,0.125-1.127,0.316c-0.357,0.191-0.675,0.43-0.943,0.723c-0.271,0.289-0.486,0.613-0.648,0.977
		c-0.16,0.363-0.242,0.73-0.242,1.094c0,0.098,0.002,0.172,0.008,0.219C22.484,22.879,22.555,22.902,22.691,22.902z"/>
</g>
</svg>
